HIERARCHY
ROOT root
{
	OFFSET	0	13.1	24.9
	CHANNELS 6  Xposition Yposition Zposition Xrotation Yrotation Zrotation
	JOINT spine_1
	{
		OFFSET	0	9.99999	0
		CHANNELS 3  Xrotation Yrotation Zrotation
		JOINT spine_2
		{
			OFFSET	0	112	-10
			CHANNELS 3  Xrotation Yrotation Zrotation
			JOINT spine_3
			{
				OFFSET	0	206.5	19.3
				CHANNELS 3  Xrotation Yrotation Zrotation
				JOINT spine_4
				{
					OFFSET	0	110.4	14.6
					CHANNELS 3  Xrotation Yrotation Zrotation
					JOINT neck_1
					{
						OFFSET	0	71.8	-50.3
						CHANNELS 3  Xrotation Yrotation Zrotation
						JOINT neck_2
						{
							OFFSET	0	86.2	-25.8
							CHANNELS 3  Xrotation Yrotation Zrotation
							JOINT head_ee
							{
								OFFSET	0	179.8	-8.7
								CHANNELS 3  Xrotation Yrotation Zrotation
								End Site
								{
									OFFSET	1	0	0
								}
							}
						}
					}
					JOINT left_clavicle
					{
						OFFSET	-43.2	22.4	-70.8
						CHANNELS 3  Xrotation Yrotation Zrotation
						JOINT left_shoulder
						{
							OFFSET	-93.9	-5.79999	48.7
							CHANNELS 3  Xrotation Yrotation Zrotation
							JOINT left_elbow
							{
								OFFSET	-291.4	-30.8	15.2
								CHANNELS 3  Xrotation Yrotation Zrotation
								JOINT left_lowarm_twist
								{
									OFFSET	-110.7	-3.89999	13.6
									CHANNELS 3  Xrotation Yrotation Zrotation
									JOINT left_hand
									{
										OFFSET	-110.7	-3.89999	13.6
										CHANNELS 3  Xrotation Yrotation Zrotation
										JOINT left_ee
										{
											OFFSET	-80.8	-5.10001	12.1
											CHANNELS 3  Xrotation Yrotation Zrotation
											End Site
											{
												OFFSET	1	0	0
											}
										}
									}
								}
							}
						}
					}
					JOINT right_clavicle
					{
						OFFSET	43.2	22.4	-70.8
						CHANNELS 3  Xrotation Yrotation Zrotation
						JOINT right_shoulder
						{
							OFFSET	93.9	-5.79999	48.7
							CHANNELS 3  Xrotation Yrotation Zrotation
							JOINT right_elbow
							{
								OFFSET	291.4	-30.8	15.2
								CHANNELS 3  Xrotation Yrotation Zrotation
								JOINT right_lowarm_twist
								{
									OFFSET	110.7	-3.89999	13.6
									CHANNELS 3  Xrotation Yrotation Zrotation
									JOINT right_hand
									{
										OFFSET	110.7	-3.89999	13.6
										CHANNELS 3  Xrotation Yrotation Zrotation
										JOINT right_ee
										{
											OFFSET	80.8	-5.10001	12.1
											CHANNELS 3  Xrotation Yrotation Zrotation
											End Site
											{
												OFFSET	1	0	0
											}
										}
									}
								}
							}
						}
					}
				}
			}
		}
	}
	JOINT left_hip
	{
		OFFSET	-82.8	-127.5	0.300001
		CHANNELS 3  Xrotation Yrotation Zrotation
		JOINT left_knee
		{
			OFFSET	-28.2	-396.7	2.2
			CHANNELS 3  Xrotation Yrotation Zrotation
			JOINT left_ankle
			{
				OFFSET	-11.7	-411.3	35.4
				CHANNELS 3  Xrotation Yrotation Zrotation
				JOINT left_toes
				{
					OFFSET	0	-60	-88.6
					CHANNELS 3  Xrotation Yrotation Zrotation
					JOINT left_foot_ee
					{
						OFFSET	-22.5	-16.5	-42.2
						CHANNELS 3  Xrotation Yrotation Zrotation
						End Site
						{
							OFFSET	1	0	0
						}
					}
				}
			}
		}
	}
	JOINT right_hip
	{
		OFFSET	82.8	-127.5	0.300001
		CHANNELS 3  Xrotation Yrotation Zrotation
		JOINT right_knee
		{
			OFFSET	28.2	-396.7	2.2
			CHANNELS 3  Xrotation Yrotation Zrotation
			JOINT right_ankle
			{
				OFFSET	11.7	-411.3	35.4
				CHANNELS 3  Xrotation Yrotation Zrotation
				JOINT right_toes
				{
					OFFSET	0	-60	-88.6
					CHANNELS 3  Xrotation Yrotation Zrotation
					JOINT right_foot_ee
					{
						OFFSET	22.5	-16.5	-42.2
						CHANNELS 3  Xrotation Yrotation Zrotation
						End Site
						{
							OFFSET	1	0	0
						}
					}
				}
			}
		}
	}
}
MOTION
Frames: 5
Frame Time: 0.02
1206.81005806 735.96 -1771.630424 11.2509569369 27.4119911371 -5.93911042843 -3.58957 0.0865038 -0.544068 -3.58942 0.120948 -0.537462 -3.59042 0.262077 -0.484573 -3.5907 0.182259 -0.51988 -1.99274 12.5346 -0.186394 -1.70639 22.8148 1.41172 -0.0 0.0 -0.0 9.47306 -6.39719 18.7108 -26.2135 -8.98168 60.0104 0.847724 -22.7792 0.170774 9.64344 0.238652 -1.20729 -0.727328 4.48318 -2.90978 -0.0 0.0 -0.0 7.36176 12.3254 -14.0556 6.56434 31.7641 -60.4049 0.71034 19.3861 -0.121333 18.7856 -0.275061 2.3732 -0.932087 -7.4554 2.94897 0.0 0.0 0.0 2.53437 -18.2877 2.30428 -41.0597 -0.53556 6.14598 40.0954 3.07833 -4.86863 13.9645 -0.0 -0.0 -0.0 0.0 -0.0 -2.28199 15.4804 -5.43474 -8.73688 -0.259926 -1.31435 26.4059 -21.2243 3.60965 34.359 -0.0 -0.0 0.0 0.0 0.0 
1201.37557857 739.825 -1780.10034707 10.0237165519 26.2794541151 -4.86873075984 -3.58531 0.0755613 -0.401124 -3.58522 0.100932 -0.395503 -3.58585 0.204308 -0.353367 -3.586 0.145936 -0.381199 -1.96001 12.3818 -0.395878 -1.67197 22.6979 1.16563 -0.0 0.0 -0.0 9.30446 -5.94312 18.35 -26.7585 -7.77247 61.9394 0.761523 -20.6682 0.138863 9.94976 0.242882 -1.24619 -0.702091 4.83876 -2.58912 -0.0 0.0 -0.0 7.45383 12.7657 -14.2321 7.18614 32.3704 -58.8325 0.912114 24.3148 -0.1965 18.3794 -0.277396 2.32137 -0.700974 -4.21607 2.85222 0.0 0.0 0.0 5.33177 -13.8515 0.791013 -43.3244 -0.691697 6.45729 39.6262 3.33003 -4.82737 14.6212 -0.0 -0.0 -0.0 0.0 -0.0 -4.07244 17.5839 -5.41209 -3.73086 -0.135531 -0.55643 22.7076 -21.992 3.16987 33.7355 -0.0 -0.0 0.0 0.0 0.0 
1183.97824265 736.232 -1795.82774977 11.3347253279 26.5866885424 -4.82178876212 -3.67138 0.171524 -0.671387 -3.67115 0.213898 -0.659112 -3.67347 0.385358 -0.57592 -3.67381 0.289568 -0.62955 -1.97627 12.2247 -0.377284 -1.69719 22.4007 1.16925 -0.0 0.0 -0.0 8.95633 -5.61629 17.6117 -27.9635 -6.92388 63.46 0.698283 -19.081 0.117361 9.90746 0.24231 -1.24082 -0.625922 5.48213 -1.81053 -0.0 0.0 -0.0 7.42214 13.93 -14.1044 8.53232 32.9342 -58.4534 1.08005 28.1471 -0.270768 18.419 -0.277184 2.32642 -0.695842 -4.08311 2.87612 0.0 0.0 0.0 10.0095 -14.2768 -0.934417 -43.1368 -0.67829 6.43172 40.1785 3.11159 -4.87568 15.2335 -0.0 -0.0 -0.0 0.0 -0.0 -7.47385 19.1246 -5.74628 -1.71931 -0.0669639 -0.255346 22.3132 -21.6197 3.11496 33.5152 -0.0 -0.0 0.0 0.0 0.0 
1158.13721396 736.028 -1802.74314372 11.7806382735 29.8536783904 -4.92243588931 -3.61705 -0.0379649 -0.689629 -3.61679 0.00599382 -0.690647 -3.61651 0.193238 -0.663091 -3.61712 0.0860924 -0.685287 -2.78481 11.3457 -1.59238 -2.54072 21.8493 -0.0783715 -0.0 0.0 -0.0 8.38169 -4.82014 16.4056 -28.7644 -6.60055 64.9126 0.685204 -18.7488 0.113122 10.1735 0.24584 -1.27461 -0.288563 5.59368 0.446968 -0.0 0.0 -0.0 7.52402 14.2313 -14.3081 8.82457 33.3738 -58.0254 1.22835 31.3188 -0.344346 18.1876 -0.278371 2.29689 -0.929944 -3.67628 4.60143 0.0 0.0 0.0 12.033 -13.5657 -1.01789 -46.1231 -0.90153 6.83325 40.1624 3.35326 -4.87369 17.1914 -0.0 -0.0 -0.0 0.0 -0.0 -8.54798 20.6237 -6.43847 -1.13607 -0.0451086 -0.168507 17.5362 -22.0365 2.50247 31.7639 -0.0 -0.0 0.0 0.0 0.0 
1128.0859883 736.511 -1819.0373525 13.1879599329 31.3685306701 -4.99620958396 -3.80756 -0.0775924 -0.897534 -3.80711 -0.0203251 -0.900652 -3.80616 0.227802 -0.871606 -3.80721 0.087295 -0.896642 -2.97469 10.5901 -1.91151 -2.75673 20.7396 -0.482337 -0.0 0.0 -0.0 8.37057 -3.38186 16.3797 -30.1447 -5.54106 65.9508 0.607239 -16.7418 0.0893552 9.99981 0.243553 -1.25255 -0.081719 6.18412 2.04709 -0.0 0.0 -0.0 7.73043 13.8563 -14.7741 9.01311 33.5903 -57.3413 1.33086 33.3939 -0.399216 16.819 -0.282947 2.12215 -0.547876 -1.27312 3.11128 0.0 0.0 0.0 13.0605 -11.0844 -3.32147 -47.6164 -1.02097 7.0296 36.9129 3.62283 -4.58245 18.3076 -0.0 -0.0 -0.0 0.0 -0.0 -9.88575 19.5428 -7.51285 -3.4029 -0.125075 -0.507184 15.7222 -22.6061 2.26527 30.8349 -0.0 -0.0 0.0 0.0 0.0 
